<svg width="128" height="128" viewBox="0 0 128 128" fill="none" xmlns="http://www.w3.org/2000/svg">
<rect width="128" height="128" rx="20" fill="url(#paint0_linear)"/>
<path d="M47.5252 83.1504C40.6698 83.1504 34.0673 80.4079 29.1852 75.5258C24.3031 70.6437 21.5605 64.0412 21.5605 57.1858C21.5605 50.3304 24.3031 43.7279 29.1852 38.8458C34.0673 33.9637 40.6698 31.2212 47.5252 31.2212C54.3806 31.2212 60.9831 33.9637 65.8652 38.8458C70.7473 43.7279 73.4898 50.3304 73.4898 57.1858C73.4898 60.101 73.0073 62.9649 72.0722 65.7176C71.1371 68.4703 69.7573 71.0963 67.9942 73.5186L86.2778 91.8022L91.8022 86.2778L73.5186 67.9942C71.0963 69.7573 68.4703 71.1371 65.7176 72.0722C62.9649 73.0073 60.101 73.4898 57.1858 73.4898V73.4898L47.5252 83.1504ZM47.5252 69.5898C52.7937 69.5898 57.8488 67.5459 61.5647 63.83C65.2806 60.1141 67.3245 55.059 67.3245 49.7905C67.3245 44.522 65.2806 39.9995 61.5647 36.2836C57.8488 32.5677 52.7937 30.5238 47.5252 30.5238C42.2567 30.5238 37.7342 32.5677 34.0183 36.2836C30.3024 39.9995 28.2585 44.522 28.2585 49.7905C28.2585 55.059 30.3024 60.1141 34.0183 63.83C37.7342 67.5459 42.2567 69.5898 47.5252 69.5898Z" fill="white"/>
<defs>
<linearGradient id="paint0_linear" x1="0" y1="0" x2="128" y2="128" gradientUnits="userSpaceOnUse">
<stop stop-color="#4F7CFF"/>
<stop offset="1" stop-color="#31B4FF"/>
</linearGradient>
</defs>
</svg>